HIERARCHY
ROOT Hips
{
  OFFSET 40.0408 98.6151 11.9529
  CHANNELS 6 Xposition Yposition Zposition Zrotation Xrotation Yrotation
  JOINT spine
  {
    OFFSET 0 8.30103 0.477351
    CHANNELS 3 Zrotation Xrotation Yrotation
    JOINT spine1
    {
      OFFSET 0 10.4565 0
      CHANNELS 3 Zrotation Xrotation Yrotation
      JOINT spine2
      {
        OFFSET 0 10.0192 0
        CHANNELS 3 Zrotation Xrotation Yrotation
        JOINT Neck
        {
          OFFSET 0 25.7235 1.22641
          CHANNELS 3 Zrotation Xrotation Yrotation
          JOINT Head
          {
            OFFSET 0 7.77175 0
            CHANNELS 3 Zrotation Xrotation Yrotation
            End Site
            {
              OFFSET 0 18.812 -6.20394
            }
          }
        }
        JOINT RightShoulder
        {
          OFFSET -4.2188 10.82 -0.587439
          CHANNELS 3 Zrotation Xrotation Yrotation
          JOINT RightArm
          {
            OFFSET 0 14.1914 0
            CHANNELS 3 Zrotation Xrotation Yrotation
            JOINT RightArmRoll
            {
              OFFSET 0 7.16408 0
              CHANNELS 3 Zrotation Xrotation Yrotation
              JOINT RightForeArm
              {
                OFFSET 0 20.8665 0
                CHANNELS 3 Zrotation Xrotation Yrotation
                JOINT RightForeArmRoll
                {
                  OFFSET 0 8.03921 0
                  CHANNELS 3 Zrotation Xrotation Yrotation
                  JOINT RightHand
                  {
                    OFFSET 0 16.133 0
                    CHANNELS 3 Zrotation Xrotation Yrotation
                    End Site
                    {
                      OFFSET 0 0 0
                    }
                  }
                }
              }
            }
          }
        }
        JOINT LeftShoulder
        {
          OFFSET 4.2188 10.82 -0.587439
          CHANNELS 3 Zrotation Xrotation Yrotation
          JOINT LeftArm
          {
            OFFSET 0 14.1914 0
            CHANNELS 3 Zrotation Xrotation Yrotation
            JOINT LeftArmRoll
            {
              OFFSET 0 7.16408 0
              CHANNELS 3 Zrotation Xrotation Yrotation
              JOINT LeftForeArm
              {
                OFFSET 0 20.8665 0
                CHANNELS 3 Zrotation Xrotation Yrotation
                JOINT LeftForeArmRoll
                {
                  OFFSET 0 8.03921 0
                  CHANNELS 3 Zrotation Xrotation Yrotation
                  JOINT LeftHand
                  {
                    OFFSET 0 16.133 0
                    CHANNELS 3 Zrotation Xrotation Yrotation
                    End Site
                    {
                      OFFSET 0 0 0
                    }
                  }
                }
              }
            }
          }
        }
      }
    }
  }
  JOINT RightUpLeg
  {
    OFFSET -7.35773 -1.34921 -1.13181
    CHANNELS 3 Zrotation Xrotation Yrotation
    JOINT RightUpLegRoll
    {
      OFFSET 0 18.9168 0
      CHANNELS 3 Zrotation Xrotation Yrotation
      JOINT RightLeg
      {
        OFFSET 0 -23.4256 0
        CHANNELS 3 Zrotation Xrotation Yrotation
        JOINT RightLegRoll
        {
          OFFSET 0 23.5023 0
          CHANNELS 3 Zrotation Xrotation Yrotation
          JOINT RightFoot
          {
            OFFSET 0 19.5617 0
            CHANNELS 3 Zrotation Xrotation Yrotation
            JOINT RightToeBase
            {
              OFFSET 0 16.3526 0
              CHANNELS 3 Zrotation Xrotation Yrotation
              End Site
              {
                OFFSET 0.00693125 7.91943 -0.912837
              }
            }
          }
        }
      }
    }
  }
  JOINT LeftUpLeg
  {
    OFFSET 7.35773 -1.34921 -1.13181
    CHANNELS 3 Zrotation Xrotation Yrotation
    JOINT LeftUpLegRoll
    {
      OFFSET 0 18.9169 0
      CHANNELS 3 Zrotation Xrotation Yrotation
      JOINT LeftLeg
      {
        OFFSET 0 23.4255 0
        CHANNELS 3 Zrotation Xrotation Yrotation
        JOINT LeftLegRoll
        {
          OFFSET 0 23.7195 0
          CHANNELS 3 Zrotation Xrotation Yrotation
          JOINT LeftFoot
          {
            OFFSET 0 19.3444 0
            CHANNELS 3 Zrotation Xrotation Yrotation
            JOINT LeftToeBase
            {
              OFFSET 0 16.3526 0
              CHANNELS 3 Zrotation Xrotation Yrotation
              End Site
              {
                OFFSET -0.0310629 7.91944 -0.912836
              }
            }
          }
        }
      }
    }
  }
}
MOTION
Frames: 13
Frame Time: 0.00208333
44.1509 98.8609 11.8831 0.93243 -3.14563 8.24281 0.121203 -0.708143 0.397429 0.26 2.58741 0.775078 0.250977 4.23242 0.771349 -7.53307 17.0475 0.456812 6.45489 -0.0408395 -1.157 60.9518 1.11635 0.377331 124.548 33.6183 -39.5614 6.58115e-006 -4.86494e-006 9.17233e-006 39.97 59.8142 -26.474 -1.67972e-005 4.12497e-005 -3.00635 8.02912 -4.95133 0.697533 -66.4115 -1.16247 1.53767 -99.5289 26.3931 1.79164 -3.18055e-015 -6.36111e-015 -3.18055e-015 -16.1347 29.6284 5.13666 3.04925e-006 7.16896e-008 3 -8.0289 -4.95152 -0.697743 174.7 -2.08371 1.64092 180 7.01519e-015 178.806 176.962 7.50345 179.639 -1.00654e-006 -5.91233e-006 0.0863186 -18.4006 67.5931 19.1893 8.12764 25.2332 -3.48396 -174.683 1.17218 0.454474 4.54188e-006 -4.6773e-006 -1.18325 -2.95264 -10.7642 0.480385 -1.36834e-006 -2.57008e-006 -0.135024 18.3583 67.4085 -19.0708 -8.13649 25.2327 3.48761 
44.1702 98.8571 11.8794 0.938936 -3.14525 8.3068 0.122047 -0.706537 0.398843 0.260453 2.59061 0.778177 0.251393 4.23562 0.774444 -7.50608 17.062 0.473484 6.41039 -0.0582214 -1.13656 60.9941 1.11304 0.369716 124.426 33.6208 -39.3545 6.58115e-006 -4.86494e-006 9.17233e-006 39.8174 59.6408 -26.2742 -1.67972e-005 4.12497e-005 -3.00635 8.02912 -4.95133 0.697533 -66.4188 -1.17447 1.54475 -99.567 26.3143 1.79515 5.1684e-015 -1.27222e-014 -0 -16.1458 29.6517 5.14257 3.04925e-006 7.16896e-008 3 -8.0289 -4.95152 -0.697743 174.694 -2.05987 1.63795 180 7.01519e-015 178.806 176.977 7.57344 179.637 -1.00654e-006 -5.91233e-006 0.0879772 -18.4209 67.6182 19.2099 8.12764 25.2332 -3.48396 -174.69 1.14648 0.463958 4.54188e-006 -4.6773e-006 -1.18319 -2.95194 -10.6939 0.48041 -1.36834e-006 -2.57008e-006 -0.13387 18.3437 67.3901 -19.055 -8.13649 25.2327 3.48761 
44.1837 98.9046 11.885 0.945423 -3.14494 8.37029 0.122896 -0.704894 0.400262 0.26085 2.59386 0.781299 0.251753 4.23888 0.777563 -7.47813 17.0747 0.488846 6.36431 -0.073341 -1.11732 61.0365 1.10923 0.36179 124.305 33.6233 -39.148 6.58115e-006 -4.86494e-006 9.17233e-006 39.6675 59.4657 -26.0759 -1.67972e-005 4.12497e-005 -3.00635 8.02912 -4.95133 0.697533 -66.426 -1.18659 1.5519 -99.6049 26.2363 1.79832 6.75868e-015 -6.36111e-015 1.59028e-015 -16.1566 29.6743 5.1483 3.04925e-006 7.16896e-008 3 -8.0289 -4.95152 -0.697743 174.688 -2.03516 1.63449 180 7.01519e-015 178.806 176.993 7.6449 179.634 -1.00654e-006 -5.91233e-006 0.0896788 -18.442 67.6443 19.2313 8.12764 25.2332 -3.48396 -174.697 1.11981 0.473103 4.54188e-006 -4.6773e-006 -1.18314 -2.95165 -10.6219 0.48039 -1.36834e-006 -2.57008e-006 -0.132675 18.3284 67.3709 -19.0384 -8.13649 25.2327 3.48761 
44.1913 98.901 11.8876 0.951898 -3.14466 8.43342 0.123749 -0.703226 0.401686 0.261206 2.59717 0.784439 0.252072 4.24218 0.7807 -7.44949 17.0861 0.503292 6.31711 -0.0868771 -1.09892 61.0791 1.10506 0.353645 124.185 33.6256 -38.9418 6.58115e-006 -4.86494e-006 9.17233e-006 39.5201 59.2893 -25.8794 -1.67972e-005 4.12497e-005 -3.00635 8.02912 -4.95133 0.697533 -66.4333 -1.19881 1.5591 -99.6428 26.1589 1.80123 9.93923e-015 -6.36111e-015 -0 -16.1672 29.6965 5.1539 3.04925e-006 7.16896e-008 3 -8.0289 -4.95152 -0.697743 174.682 -2.00984 1.63069 180 7.01519e-015 178.806 177.01 7.7174 179.632 -1.00654e-006 -5.91233e-006 0.0914105 -18.4637 67.6711 19.2534 8.12764 25.2332 -3.48396 -174.704 1.09246 0.482011 4.54188e-006 -4.6773e-006 -1.18312 -2.95165 -10.5486 0.48034 -1.36834e-006 -2.57008e-006 -0.131451 18.3127 67.3511 -19.0214 -8.13649 25.2327 3.48761 
44.1953 98.902 11.8885 0.958366 -3.14442 8.49635 0.124604 -0.701543 0.403111 0.261539 2.60049 0.787589 0.252368 4.2455 0.783847 -7.42047 17.0967 0.517214 6.26928 -0.0995083 -1.081 61.1217 1.10069 0.345375 124.065 33.6274 -38.7357 6.58115e-006 -4.86494e-006 9.17233e-006 39.3751 59.112 -25.6849 -1.67972e-005 4.12497e-005 -3.00635 8.02912 -4.95133 0.697533 -66.4406 -1.21107 1.56632 -99.6805 26.0818 1.80401 -8.34896e-015 -3.18055e-015 -6.36111e-015 -16.1776 29.7183 5.15942 3.04925e-006 7.16896e-008 3 -8.0289 -4.95152 -0.697743 174.676 -1.98418 1.62669 180 7.01519e-015 178.806 177.026 7.79049 179.629 -1.00654e-006 -5.91233e-006 0.0931594 -18.4859 67.6983 19.2758 8.12764 25.2332 -3.48396 -174.711 1.06472 0.490782 4.54188e-006 -4.6773e-006 -1.1831 -2.95182 -10.4746 0.480272 -1.36834e-006 -2.57008e-006 -0.130211 18.2968 67.331 -19.0042 -8.13649 25.2327 3.48761 
44.21 98.9148 11.8791 0.964832 -3.14417 8.55923 0.125458 -0.699856 0.404536 0.261867 2.60383 0.790741 0.252658 4.24884 0.786997 -7.39135 17.1072 0.531007 6.22129 -0.111913 -1.0632 61.1643 1.09627 0.337074 123.945 33.6288 -38.5296 6.58115e-006 -4.86494e-006 9.17233e-006 39.2326 58.9342 -25.4925 -1.67972e-005 4.12497e-005 -3.00635 8.02912 -4.95133 0.697533 -66.4479 -1.22335 1.57354 -99.7183 26.0048 1.80675 7.95139e-016 -6.36111e-015 -3.18055e-015 -16.1879 29.7401 5.16493 3.04925e-006 7.16896e-008 3 -8.0289 -4.95152 -0.697743 174.67 -1.95843 1.62264 180 7.01519e-015 178.807 177.043 7.86371 179.627 -1.00654e-006 -5.91233e-006 0.0949126 -18.5081 67.7256 19.2984 8.12764 25.2332 -3.48396 -174.717 1.03688 0.49952 4.54188e-006 -4.6773e-006 -1.18309 -2.95204 -10.4005 0.480201 -1.36834e-006 -2.57008e-006 -0.128966 18.2808 67.3109 -18.9869 -8.13649 25.2327 3.48761 
44.2225 98.9069 11.8833 0.971301 -3.1439 8.62221 0.126312 -0.698176 0.405961 0.262205 2.60715 0.793888 0.252959 4.25216 0.790141 -7.36244 17.118 0.545063 6.17363 -0.124771 -1.04516 61.2069 1.09196 0.328836 123.826 33.6295 -38.3233 6.58115e-006 -4.86494e-006 9.17233e-006 39.0922 58.7563 -25.3025 -1.67972e-005 4.12497e-005 -3.00635 8.02912 -4.95133 0.697533 -66.4551 -1.2356 1.58076 -99.756 25.9276 1.80955 5.1684e-015 -9.54166e-015 -1.59028e-015 -16.1984 29.762 5.17048 3.04925e-006 7.16896e-008 3 -8.0289 -4.95152 -0.697743 174.663 -1.93285 1.61869 180 7.01519e-015 178.807 177.06 7.93666 179.624 -1.00654e-006 -5.91233e-006 0.0966571 -18.5303 67.7527 19.3209 8.12764 25.2332 -3.48396 -174.724 1.00924 0.508326 4.54188e-006 -4.6773e-006 -1.18307 -2.95217 -10.3267 0.480139 -1.36834e-006 -2.57008e-006 -0.12773 18.265 67.2908 -18.9698 -8.13649 25.2327 3.48761 
44.2286 98.9189 11.8778 0.977779 -3.1436 8.68544 0.127164 -0.696515 0.407383 0.262572 2.61044 0.797023 0.253289 4.25545 0.793273 -7.33402 17.1298 0.559778 6.12679 -0.13876 -1.02652 61.2494 1.08789 0.320753 123.706 33.6293 -38.1168 6.58115e-006 -4.86494e-006 9.17233e-006 38.954 58.5786 -25.1151 -1.67972e-005 4.12497e-005 -3.00635 8.02912 -4.95133 0.697533 -66.4624 -1.24778 1.58794 -99.7939 25.85 1.81254 -5.56597e-015 -3.18055e-015 -7.95139e-015 -16.209 29.7843 5.17613 3.04925e-006 7.16896e-008 3 -8.0289 -4.95152 -0.697743 174.657 -1.9077 1.61499 180 7.01519e-015 178.807 177.077 8.00885 179.622 -1.00654e-006 -5.91233e-006 0.0983803 -18.5521 67.7793 19.343 8.12764 25.2332 -3.48396 -174.731 0.982087 0.517301 4.54188e-006 -4.6773e-006 -1.18304 -2.95209 -10.2537 0.480101 -1.36834e-006 -2.57008e-006 -0.126514 18.2496 67.2712 -18.953 -8.13649 25.2327 3.48761 
44.2389 98.9065 11.8783 0.984271 -3.14324 8.74907 0.128011 -0.694884 0.408801 0.262983 2.61368 0.800139 0.253663 4.25868 0.796385 -7.3064 17.143 0.575546 6.08124 -0.15456 -1.00692 61.2918 1.08423 0.31292 123.585 33.6282 -37.9097 6.58115e-006 -4.86494e-006 9.17233e-006 38.8178 58.4016 -24.9304 -1.67972e-005 4.12497e-005 -3.00635 8.02912 -4.95133 0.697533 -66.4697 -1.25987 1.59507 -99.8318 25.7718 1.8158 -7.15625e-015 3.18055e-015 -1.59028e-015 -16.22 29.8071 5.18193 3.04925e-006 7.16896e-008 3 -8.0289 -4.95152 -0.697743 174.651 -1.88326 1.61167 180 7.01519e-015 178.807 177.092 8.07987 179.619 -1.00654e-006 -5.91233e-006 0.100069 -18.5733 67.8051 19.3645 8.12764 25.2332 -3.48396 -174.738 0.955708 0.526548 4.54188e-006 -4.6773e-006 -1.18299 -2.95168 -10.1822 0.480099 -1.36834e-006 -2.57008e-006 -0.125332 18.2347 67.2523 -18.9369 -8.13649 25.2327 3.48761 
44.2444 98.9161 11.882 0.990783 -3.1428 8.81326 0.128853 -0.693292 0.410212 0.263455 2.61685 0.803228 0.254099 4.26185 0.799469 -7.27986 17.1583 0.592762 6.03748 -0.172848 -0.986003 61.334 1.08112 0.305431 123.465 33.626 -37.7021 6.58115e-006 -4.86494e-006 9.17233e-006 38.6835 58.2257 -24.7487 -1.67972e-005 4.12497e-005 -3.00635 8.02912 -4.95133 0.697533 -66.4769 -1.27182 1.60212 -99.8699 25.6927 1.81945 1.35174e-014 3.18055e-015 -0 -16.2313 29.8307 5.18795 3.04925e-006 7.16896e-008 3 -8.0289 -4.95152 -0.697743 174.645 -1.85976 1.6089 180 7.01519e-015 178.807 177.107 8.14926 179.617 -1.00654e-006 -5.91233e-006 0.10171 -18.5937 67.8297 19.3852 8.12764 25.2332 -3.48396 -174.745 0.930397 0.536167 4.54188e-006 -4.6773e-006 -1.18292 -2.9508 -10.1126 0.480148 -1.36834e-006 -2.57008e-006 -0.124194 18.2206 67.2342 -18.9215 -8.13649 25.2327 3.48761 
44.2524 98.9024 11.8799 0.997318 -3.14227 8.87816 0.129688 -0.691753 0.411617 0.264007 2.61993 0.806283 0.254614 4.26493 0.802519 -7.25471 17.1762 0.61182 5.99599 -0.194304 -0.963404 61.376 1.07872 0.298378 123.343 33.6224 -37.4937 6.58115e-006 -4.86494e-006 9.17233e-006 38.5508 58.0512 -24.5699 -1.67972e-005 4.12497e-005 -3.00635 8.02912 -4.95133 0.697533 -66.4842 -1.28359 1.60909 -99.9082 25.6125 1.8236 -7.95139e-015 0 -3.18055e-015 -16.2432 29.8551 5.19424 3.04925e-006 7.16896e-008 3 -8.0289 -4.95152 -0.697743 174.639 -1.83749 1.60682 180 7.01519e-015 178.807 177.121 8.21661 179.615 -1.00654e-006 -5.91233e-006 0.103292 -18.6129 67.853 19.4047 8.12764 25.2332 -3.48396 -174.752 0.906445 0.546261 4.54188e-006 -4.6773e-006 -1.18281 -2.94935 -10.0455 0.48026 -1.36834e-006 -2.57008e-006 -0.123115 18.2073 67.2173 -18.9072 -8.13649 25.2327 3.48761 
44.2579 98.907 11.8764 1.00388 -3.14161 8.9439 0.130515 -0.690277 0.413012 0.264653 2.62291 0.809298 0.255226 4.26791 0.805525 -7.23125 17.1971 0.633116 5.95726 -0.219607 -0.938766 61.4178 1.07717 0.291855 123.22 33.6175 -37.2845 6.58115e-006 -4.86494e-006 9.17233e-006 38.4196 57.8787 -24.3943 -1.67972e-005 4.12497e-005 -3.00635 8.02912 -4.95133 0.697533 -66.4916 -1.29515 1.61594 -99.9467 25.531 1.82833 -3.18055e-015 -6.36111e-015 -3.18055e-015 -16.2557 29.8808 5.20086 3.04925e-006 7.16896e-008 3 -8.0289 -4.95152 -0.697743 174.633 -1.81669 1.60557 180 7.01519e-015 178.807 177.134 8.28144 179.613 -1.00654e-006 -5.91233e-006 0.1048 -18.6308 67.8746 19.4229 8.12764 25.2332 -3.48396 -174.76 0.884143 0.556931 4.54188e-006 -4.6773e-006 -1.18266 -2.94718 -9.98138 0.480449 -1.36834e-006 -2.57008e-006 -0.122105 18.1952 67.2018 -18.894 -8.13649 25.2327 3.48761 
44.2578 98.9047 11.8756 1.01048 -3.14082 9.01066 0.131332 -0.688874 0.414396 0.265413 2.62576 0.812263 0.25595 4.27076 0.808481 -7.20978 17.2218 0.657048 5.92179 -0.249436 -0.911728 61.4592 1.07664 0.285957 123.096 33.6109 -37.0742 6.58115e-006 -4.86494e-006 9.17233e-006 38.2898 57.7083 -24.222 -1.67972e-005 4.12497e-005 -3.00635 8.02912 -4.95133 0.697533 -66.4989 -1.30645 1.62266 -99.9855 25.4478 1.83377 2.78299e-015 -3.18055e-015 -4.77083e-015 -16.2689 29.9078 5.20787 3.04925e-006 7.16896e-008 3 -8.0289 -4.95152 -0.697743 174.627 -1.79763 1.60531 180 7.01519e-015 178.807 177.145 8.34335 179.611 -1.00654e-006 -5.91233e-006 0.106222 -18.6471 67.8942 19.4394 8.12764 25.2332 -3.48396 -174.767 0.863782 0.568279 4.54188e-006 -4.6773e-006 -1.18247 -2.94418 -9.92075 0.480728 -1.36834e-006 -2.57008e-006 -0.121178 18.1844 67.188 -18.8823 -8.13649 25.2327 3.48761 
